<svg fill="none" height="20" viewBox="0 0 20 20" width="20" xmlns="http://www.w3.org/2000/svg"><g fill="#212121"><path d="m2.97803 14.537c-.25755.2698-.54884.5133-.85699.7119-.23211.1496-.54154.0828-.69115-.1493-.1496-.2322-.08272-.5416.14939-.6912.73367-.4729 1.28381-1.2275 1.41063-1.788.05568-.2461.28402-.4083.52847-.388.25727.0205.45965.2358.45965.4984v5.7692c0 .2761-.22386.5-.5.5-.27615 0-.5-.2239-.5-.5z"/><path d="m7.58641 13.2308c-.63074 0-1.09349.5421-1.09349 1.0734 0 .2761-.22386.5-.5.5s-.5-.2239-.5-.5c0-1.0422.86999-2.0734 2.09349-2.0734.72155 0 1.41975.326 1.81217.9092.41065.6104.42785 1.4127-.05696 2.2106-.24577.4044-.58358.7112-.91645.9654-.16702.1275-.33944.2467-.50323.3586l-.07078.0483c-.14054.0959-.27349.1866-.40216.2802-.43083.3134-.7382.6063-.87561.9969h2.58714c.27614 0 .5.2239.5.5s-.22386.5-.5.5h-3.15272l-.00741-.0001-.00748.0001c-.27614 0-.5-.2239-.5-.5 0-1.167.70254-1.8215 1.36776-2.3055.14197-.1033.2889-.2035.42876-.2989l.0683-.0467c.163-.1113.31633-.2176.46054-.3277.28959-.2211.51614-.4388.66874-.6899.31194-.5134.24464-.8911.08187-1.133-.181-.2691-.54512-.4675-.98248-.4675z"/><path d="m12.0616 13.4915c-.1625.1385-.2464.3097-.2819.4298-.0782.2649-.3563.4162-.6211.3379-.2649-.0782-.4162-.3563-.3379-.6211.0781-.2645.2522-.6177.592-.9075.3484-.2971.8391-.4998 1.494-.4998 1.3252 0 2.1066.9366 2.1066 1.8112 0 .3447-.0693.8727-.4375 1.3206-.0653.0793-.1376.1535-.2173.2219.1254.0929.2433.2057.3443.3427.1994.2705.3105.6057.3105.9994 0 .7139-.2494 1.2603-.6859 1.6166-.419.3419-.9469.4568-1.4207.4568-.4497 0-.8882-.0723-1.2651-.303-.388-.2375-.6519-.6064-.8148-1.0848-.0889-.2615.0509-.5455.3123-.6345s.5454.0508.6344.3122c.1049.3083.2427.4639.3902.5542.1586.0971.3895.1559.743.1559.3296 0 .6049-.0818.7884-.2316.166-.1354.3182-.3757.3182-.8418 0-.1964-.0521-.3201-.1155-.4061-.0676-.0917-.1713-.1715-.3152-.2367-.2996-.1359-.6824-.1684-.9436-.1684-.2762 0-.5-.2239-.5-.5 0-.2762.2238-.5.5-.5.7119 0 1.0198-.2121 1.1643-.3879.16-.1946.21-.4533.21-.6855 0-.2793-.2897-.8112-1.1066-.8112-.4355 0-.6913.1294-.8451.2607z"/><path d="m2.00006 9.25c0-.41421.33579-.75.75-.75h14.50004c.4142 0 .75.33579.75.75s-.3358.75-.75.75h-14.50004c-.41421 0-.75-.33579-.75-.75z"/><path d="m2.00006 4.25c0-.41421.33579-.75.75-.75h14.50004c.4142 0 .75.33579.75.75s-.3358.75-.75.75h-14.50004c-.41421 0-.75-.33579-.75-.75z"/><path d="m16.0001 14.25c0-.4142.3357-.75.75-.75h.5c.4142 0 .75.3358.75.75s-.3358.75-.75.75h-.5c-.4143 0-.75-.3358-.75-.75z"/></g></svg>